<mxfile host="app.diagrams.net" agent="Mozilla/5.0 (Windows NT 10.0; Win64; x64) AppleWebKit/537.36 (KHTML, like Gecko) Chrome/130.0.0.0 Safari/537.36" version="24.8.2">
  <diagram id="C5RBs43oDa-KdzZeNtuy" name="Page-1">
    <mxGraphModel grid="1" page="1" gridSize="10" guides="1" tooltips="1" connect="1" arrows="1" fold="1" pageScale="1" pageWidth="827" pageHeight="1169" math="0" shadow="0">
      <root>
        <mxCell id="WIyWlLk6GJQsqaUBKTNV-0" />
        <mxCell id="WIyWlLk6GJQsqaUBKTNV-1" parent="WIyWlLk6GJQsqaUBKTNV-0" />
        <mxCell id="IZHfYTeVng84kyy--IW7-3" value="Main" style="swimlane;fontStyle=1;align=center;verticalAlign=top;childLayout=stackLayout;horizontal=1;startSize=26;horizontalStack=0;resizeParent=1;resizeParentMax=0;resizeLast=0;collapsible=1;marginBottom=0;whiteSpace=wrap;html=1;" vertex="1" parent="WIyWlLk6GJQsqaUBKTNV-1">
          <mxGeometry x="-40" y="250" width="160" height="52" as="geometry" />
        </mxCell>
        <mxCell id="IZHfYTeVng84kyy--IW7-6" value="+ main(args: String[]): void " style="text;strokeColor=none;fillColor=none;align=left;verticalAlign=top;spacingLeft=4;spacingRight=4;overflow=hidden;rotatable=0;points=[[0,0.5],[1,0.5]];portConstraint=eastwest;whiteSpace=wrap;html=1;" vertex="1" parent="IZHfYTeVng84kyy--IW7-3">
          <mxGeometry y="26" width="160" height="26" as="geometry" />
        </mxCell>
        <mxCell id="IZHfYTeVng84kyy--IW7-11" value="PlayerInteraction" style="swimlane;fontStyle=1;align=center;verticalAlign=top;childLayout=stackLayout;horizontal=1;startSize=26;horizontalStack=0;resizeParent=1;resizeParentMax=0;resizeLast=0;collapsible=1;marginBottom=0;whiteSpace=wrap;html=1;" vertex="1" parent="WIyWlLk6GJQsqaUBKTNV-1">
          <mxGeometry x="-990" y="740" width="320" height="150" as="geometry" />
        </mxCell>
        <mxCell id="IZHfYTeVng84kyy--IW7-12" value="+ gameLogic: CheckersGameLogic&lt;div&gt;+&amp;nbsp;scanner: Scanner&lt;/div&gt;" style="text;strokeColor=none;fillColor=none;align=left;verticalAlign=top;spacingLeft=4;spacingRight=4;overflow=hidden;rotatable=0;points=[[0,0.5],[1,0.5]];portConstraint=eastwest;whiteSpace=wrap;html=1;" vertex="1" parent="IZHfYTeVng84kyy--IW7-11">
          <mxGeometry y="26" width="320" height="44" as="geometry" />
        </mxCell>
        <mxCell id="IZHfYTeVng84kyy--IW7-13" value="" style="line;strokeWidth=1;fillColor=none;align=left;verticalAlign=middle;spacingTop=-1;spacingLeft=3;spacingRight=3;rotatable=0;labelPosition=right;points=[];portConstraint=eastwest;strokeColor=inherit;" vertex="1" parent="IZHfYTeVng84kyy--IW7-11">
          <mxGeometry y="70" width="320" height="8" as="geometry" />
        </mxCell>
        <mxCell id="IZHfYTeVng84kyy--IW7-14" value="+ PlayerInteraction(gameLogic: CheckersGameLogic)&lt;div&gt;+&amp;nbsp;handlePlayerTurn(currentPlayer: PlayerID): int[]&amp;nbsp;&lt;/div&gt;&lt;div&gt;+&amp;nbsp;validateMoveAndCapture(fromRow: int, fromCol: int, toRow: int, toCol: int, currentPlayer: PlayerID): boolean&lt;/div&gt;" style="text;strokeColor=none;fillColor=none;align=left;verticalAlign=top;spacingLeft=4;spacingRight=4;overflow=hidden;rotatable=0;points=[[0,0.5],[1,0.5]];portConstraint=eastwest;whiteSpace=wrap;html=1;" vertex="1" parent="IZHfYTeVng84kyy--IW7-11">
          <mxGeometry y="78" width="320" height="72" as="geometry" />
        </mxCell>
        <mxCell id="IZHfYTeVng84kyy--IW7-15" value="GameController" style="swimlane;fontStyle=1;align=center;verticalAlign=top;childLayout=stackLayout;horizontal=1;startSize=26;horizontalStack=0;resizeParent=1;resizeParentMax=0;resizeLast=0;collapsible=1;marginBottom=0;whiteSpace=wrap;html=1;" vertex="1" parent="WIyWlLk6GJQsqaUBKTNV-1">
          <mxGeometry x="-310" y="550" width="280" height="170" as="geometry" />
        </mxCell>
        <mxCell id="IZHfYTeVng84kyy--IW7-16" value="+ gameLogic: CheckersGameLogic&lt;div&gt;+&amp;nbsp;gameStateHandler: GameStateHandler&lt;/div&gt;&lt;div&gt;+ graphic : Graphic&lt;/div&gt;" style="text;strokeColor=none;fillColor=none;align=left;verticalAlign=top;spacingLeft=4;spacingRight=4;overflow=hidden;rotatable=0;points=[[0,0.5],[1,0.5]];portConstraint=eastwest;whiteSpace=wrap;html=1;" vertex="1" parent="IZHfYTeVng84kyy--IW7-15">
          <mxGeometry y="26" width="280" height="54" as="geometry" />
        </mxCell>
        <mxCell id="IZHfYTeVng84kyy--IW7-17" value="" style="line;strokeWidth=1;fillColor=none;align=left;verticalAlign=middle;spacingTop=-1;spacingLeft=3;spacingRight=3;rotatable=0;labelPosition=right;points=[];portConstraint=eastwest;strokeColor=inherit;" vertex="1" parent="IZHfYTeVng84kyy--IW7-15">
          <mxGeometry y="80" width="280" height="8" as="geometry" />
        </mxCell>
        <mxCell id="IZHfYTeVng84kyy--IW7-18" value="&lt;div&gt;+ GameController()&lt;/div&gt;&lt;div&gt;+ startGame(): void&lt;/div&gt;&lt;div&gt;&lt;span style=&quot;background-color: initial;&quot;&gt;+ playGame(): void&lt;/span&gt;&lt;/div&gt;&lt;div&gt;+ handlePlayerTurn(currentPlayer: PlayerID): int[]&lt;/div&gt;&lt;div&gt;+ isGameOver(): boolean&lt;/div&gt;" style="text;strokeColor=none;fillColor=none;align=left;verticalAlign=top;spacingLeft=4;spacingRight=4;overflow=hidden;rotatable=0;points=[[0,0.5],[1,0.5]];portConstraint=eastwest;whiteSpace=wrap;html=1;" vertex="1" parent="IZHfYTeVng84kyy--IW7-15">
          <mxGeometry y="88" width="280" height="82" as="geometry" />
        </mxCell>
        <mxCell id="IZHfYTeVng84kyy--IW7-27" value="CheckersGameLogic" style="swimlane;fontStyle=1;align=center;verticalAlign=top;childLayout=stackLayout;horizontal=1;startSize=26;horizontalStack=0;resizeParent=1;resizeParentMax=0;resizeLast=0;collapsible=1;marginBottom=0;whiteSpace=wrap;html=1;" vertex="1" parent="WIyWlLk6GJQsqaUBKTNV-1">
          <mxGeometry x="-610" y="10" width="410" height="400" as="geometry" />
        </mxCell>
        <mxCell id="IZHfYTeVng84kyy--IW7-28" value="+ board: int[][]&lt;div&gt;+ gameState: GameState&lt;/div&gt;&lt;div&gt;+&amp;nbsp;currentPlayer: PlayerID&lt;/div&gt;&lt;div&gt;+graphic: Graphic&lt;/div&gt;" style="text;strokeColor=none;fillColor=none;align=left;verticalAlign=top;spacingLeft=4;spacingRight=4;overflow=hidden;rotatable=0;points=[[0,0.5],[1,0.5]];portConstraint=eastwest;whiteSpace=wrap;html=1;" vertex="1" parent="IZHfYTeVng84kyy--IW7-27">
          <mxGeometry y="26" width="410" height="74" as="geometry" />
        </mxCell>
        <mxCell id="IZHfYTeVng84kyy--IW7-29" value="" style="line;strokeWidth=1;fillColor=none;align=left;verticalAlign=middle;spacingTop=-1;spacingLeft=3;spacingRight=3;rotatable=0;labelPosition=right;points=[];portConstraint=eastwest;strokeColor=inherit;" vertex="1" parent="IZHfYTeVng84kyy--IW7-27">
          <mxGeometry y="100" width="410" height="8" as="geometry" />
        </mxCell>
        <mxCell id="IZHfYTeVng84kyy--IW7-30" value="+ CheckersGameLogic(graphic: Graphic)&lt;div&gt;+ getGraphic(): Graphic&lt;/div&gt;&lt;div&gt;+ getGameState(): GameState&lt;/div&gt;&lt;div&gt;+ getNumPlayers(): int&lt;/div&gt;&lt;div&gt;+ playerSelectedPiece(row: int, col: int, playerID: PlayerID): boolean&lt;/div&gt;&lt;div&gt;+ playerMovedPiece(fromRow: int, fromCol: int, toRow: int, toCol: int, playerID: PlayerID): boolean&lt;/div&gt;&lt;div&gt;+ playerCapturedPiece(fromRow: int, fromCol: int, toRow: int, toCol: int, playerID: PlayerID): void&lt;/div&gt;&lt;div&gt;+ promoteToKing(row: int, col: int, playerID: PlayerID): void&lt;/div&gt;&lt;div&gt;+&amp;nbsp;switchPlayer(): void&lt;/div&gt;&lt;div&gt;+&amp;nbsp;isValidMove(fromRow: int, fromCol: int, toRow: int, toCol: int, playerID: PlayerID): boolean&lt;/div&gt;&lt;div&gt;+&amp;nbsp;isValidMove(fromRow: int, fromCol: int, toRow: int, toCol: int, playerID: PlayerID): boolean&lt;/div&gt;&lt;div&gt;+&amp;nbsp;isValidCapture(fromRow: int, fromCol: int, toRow: int, toCol: int, playerID: PlayerID): boolean&lt;/div&gt;&lt;div&gt;+&amp;nbsp;checkKingPromotion(row: int, col: int, playerID: PlayerID): boolean&lt;/div&gt;&lt;div&gt;&lt;br&gt;&lt;/div&gt;&lt;div&gt;&lt;br&gt;&lt;/div&gt;" style="text;strokeColor=none;fillColor=none;align=left;verticalAlign=top;spacingLeft=4;spacingRight=4;overflow=hidden;rotatable=0;points=[[0,0.5],[1,0.5]];portConstraint=eastwest;whiteSpace=wrap;html=1;" vertex="1" parent="IZHfYTeVng84kyy--IW7-27">
          <mxGeometry y="108" width="410" height="292" as="geometry" />
        </mxCell>
        <mxCell id="IZHfYTeVng84kyy--IW7-31" value="GameStateHandler" style="swimlane;fontStyle=1;align=center;verticalAlign=top;childLayout=stackLayout;horizontal=1;startSize=26;horizontalStack=0;resizeParent=1;resizeParentMax=0;resizeLast=0;collapsible=1;marginBottom=0;whiteSpace=wrap;html=1;" vertex="1" parent="WIyWlLk6GJQsqaUBKTNV-1">
          <mxGeometry x="-290" y="806" width="240" height="120" as="geometry" />
        </mxCell>
        <mxCell id="IZHfYTeVng84kyy--IW7-32" value="+ gameState: GameState" style="text;strokeColor=none;fillColor=none;align=left;verticalAlign=top;spacingLeft=4;spacingRight=4;overflow=hidden;rotatable=0;points=[[0,0.5],[1,0.5]];portConstraint=eastwest;whiteSpace=wrap;html=1;" vertex="1" parent="IZHfYTeVng84kyy--IW7-31">
          <mxGeometry y="26" width="240" height="26" as="geometry" />
        </mxCell>
        <mxCell id="IZHfYTeVng84kyy--IW7-33" value="" style="line;strokeWidth=1;fillColor=none;align=left;verticalAlign=middle;spacingTop=-1;spacingLeft=3;spacingRight=3;rotatable=0;labelPosition=right;points=[];portConstraint=eastwest;strokeColor=inherit;" vertex="1" parent="IZHfYTeVng84kyy--IW7-31">
          <mxGeometry y="52" width="240" height="8" as="geometry" />
        </mxCell>
        <mxCell id="IZHfYTeVng84kyy--IW7-34" value="+ setState(newState: GameState): void&lt;div&gt;+&amp;nbsp;getState(): GameState&lt;/div&gt;" style="text;strokeColor=none;fillColor=none;align=left;verticalAlign=top;spacingLeft=4;spacingRight=4;overflow=hidden;rotatable=0;points=[[0,0.5],[1,0.5]];portConstraint=eastwest;whiteSpace=wrap;html=1;" vertex="1" parent="IZHfYTeVng84kyy--IW7-31">
          <mxGeometry y="60" width="240" height="60" as="geometry" />
        </mxCell>
        <mxCell id="IZHfYTeVng84kyy--IW7-35" value="CheckersBoard" style="swimlane;fontStyle=1;align=center;verticalAlign=top;childLayout=stackLayout;horizontal=1;startSize=26;horizontalStack=0;resizeParent=1;resizeParentMax=0;resizeLast=0;collapsible=1;marginBottom=0;whiteSpace=wrap;html=1;" vertex="1" parent="WIyWlLk6GJQsqaUBKTNV-1">
          <mxGeometry x="-1030" y="500" width="230" height="100" as="geometry" />
        </mxCell>
        <mxCell id="IZHfYTeVng84kyy--IW7-38" value="+ createBoard(): int[][]&lt;div&gt;+ printBoard(board: int[][]): void&lt;/div&gt;&lt;div&gt;&lt;div&gt;+&amp;nbsp;initializeBoard(board: int[][]): void&lt;/div&gt;&lt;/div&gt;" style="text;strokeColor=none;fillColor=none;align=left;verticalAlign=top;spacingLeft=4;spacingRight=4;overflow=hidden;rotatable=0;points=[[0,0.5],[1,0.5]];portConstraint=eastwest;whiteSpace=wrap;html=1;" vertex="1" parent="IZHfYTeVng84kyy--IW7-35">
          <mxGeometry y="26" width="230" height="74" as="geometry" />
        </mxCell>
        <mxCell id="IZHfYTeVng84kyy--IW7-39" value="Graphic" style="swimlane;fontStyle=1;align=center;verticalAlign=top;childLayout=stackLayout;horizontal=1;startSize=26;horizontalStack=0;resizeParent=1;resizeParentMax=0;resizeLast=0;collapsible=1;marginBottom=0;whiteSpace=wrap;html=1;" vertex="1" parent="WIyWlLk6GJQsqaUBKTNV-1">
          <mxGeometry x="80" y="600" width="200" height="120" as="geometry" />
        </mxCell>
        <mxCell id="IZHfYTeVng84kyy--IW7-40" value="+ board: int[][]" style="text;strokeColor=none;fillColor=none;align=left;verticalAlign=top;spacingLeft=4;spacingRight=4;overflow=hidden;rotatable=0;points=[[0,0.5],[1,0.5]];portConstraint=eastwest;whiteSpace=wrap;html=1;" vertex="1" parent="IZHfYTeVng84kyy--IW7-39">
          <mxGeometry y="26" width="200" height="26" as="geometry" />
        </mxCell>
        <mxCell id="IZHfYTeVng84kyy--IW7-41" value="" style="line;strokeWidth=1;fillColor=none;align=left;verticalAlign=middle;spacingTop=-1;spacingLeft=3;spacingRight=3;rotatable=0;labelPosition=right;points=[];portConstraint=eastwest;strokeColor=inherit;" vertex="1" parent="IZHfYTeVng84kyy--IW7-39">
          <mxGeometry y="52" width="200" height="8" as="geometry" />
        </mxCell>
        <mxCell id="IZHfYTeVng84kyy--IW7-42" value="+ update(board: int[][]): void&lt;div&gt;+ displayBoard(board: int[][]): void&lt;/div&gt;" style="text;strokeColor=none;fillColor=none;align=left;verticalAlign=top;spacingLeft=4;spacingRight=4;overflow=hidden;rotatable=0;points=[[0,0.5],[1,0.5]];portConstraint=eastwest;whiteSpace=wrap;html=1;" vertex="1" parent="IZHfYTeVng84kyy--IW7-39">
          <mxGeometry y="60" width="200" height="60" as="geometry" />
        </mxCell>
        <mxCell id="IZHfYTeVng84kyy--IW7-43" value="" style="endArrow=block;dashed=1;endFill=0;endSize=12;html=1;rounded=0;exitX=0;exitY=0.5;exitDx=0;exitDy=0;entryX=1;entryY=0.5;entryDx=0;entryDy=0;" edge="1" parent="WIyWlLk6GJQsqaUBKTNV-1" source="IZHfYTeVng84kyy--IW7-30" target="IZHfYTeVng84kyy--IW7-44">
          <mxGeometry width="160" relative="1" as="geometry">
            <mxPoint x="330" y="380" as="sourcePoint" />
            <mxPoint x="490" y="380" as="targetPoint" />
          </mxGeometry>
        </mxCell>
        <mxCell id="IZHfYTeVng84kyy--IW7-44" value="&lt;p style=&quot;margin:0px;margin-top:4px;text-align:center;&quot;&gt;&lt;i&gt;&amp;lt;&amp;lt;Interface&amp;gt;&amp;gt;&lt;/i&gt;&lt;br&gt;&lt;b&gt;IChecker&lt;/b&gt;&lt;/p&gt;&lt;hr size=&quot;1&quot; style=&quot;border-style:solid;&quot;&gt;&lt;p style=&quot;margin:0px;margin-left:4px;&quot;&gt;+ getGraphic(): Graphic&lt;/p&gt;&lt;p style=&quot;margin:0px;margin-left:4px;&quot;&gt;+ getGameState(): GameState&lt;/p&gt;&lt;p style=&quot;margin:0px;margin-left:4px;&quot;&gt;+ getNumPlayers(): int&lt;/p&gt;&lt;p style=&quot;margin:0px;margin-left:4px;&quot;&gt;+ playerSelectedPiece(row: int, col: int, playerID: PlayerID): boolean&amp;nbsp;&lt;/p&gt;&lt;p style=&quot;margin:0px;margin-left:4px;&quot;&gt;+ playerMovedPiece(fromRow: int, fromCol: int, toRow: int, toCol: int, playerID: PlayerID): boolean&amp;nbsp;&lt;/p&gt;&lt;p style=&quot;margin:0px;margin-left:4px;&quot;&gt;+ playerCapturedPiece(fromRow: int, fromCol: int, toRow: int, toCol: int, playerID: PlayerID): void&lt;/p&gt;&lt;p style=&quot;margin:0px;margin-left:4px;&quot;&gt;+ promoteToKing(row: int, col: int, playerID: PlayerID): void&lt;/p&gt;" style="verticalAlign=top;align=left;overflow=fill;html=1;whiteSpace=wrap;" vertex="1" parent="WIyWlLk6GJQsqaUBKTNV-1">
          <mxGeometry x="-1200" y="150" width="430" height="180" as="geometry" />
        </mxCell>
        <mxCell id="IZHfYTeVng84kyy--IW7-45" value="«enum»&lt;br&gt;&lt;b&gt;GameState&lt;/b&gt;" style="swimlane;fontStyle=0;childLayout=stackLayout;horizontal=1;startSize=40;fillColor=none;horizontalStack=0;resizeParent=1;resizeParentMax=0;resizeLast=0;collapsible=1;marginBottom=0;whiteSpace=wrap;html=1;" vertex="1" parent="WIyWlLk6GJQsqaUBKTNV-1">
          <mxGeometry x="100" y="782" width="140" height="144" as="geometry" />
        </mxCell>
        <mxCell id="IZHfYTeVng84kyy--IW7-46" value="+ START" style="text;strokeColor=none;fillColor=none;align=left;verticalAlign=top;spacingLeft=4;spacingRight=4;overflow=hidden;rotatable=0;points=[[0,0.5],[1,0.5]];portConstraint=eastwest;whiteSpace=wrap;html=1;" vertex="1" parent="IZHfYTeVng84kyy--IW7-45">
          <mxGeometry y="40" width="140" height="26" as="geometry" />
        </mxCell>
        <mxCell id="IZHfYTeVng84kyy--IW7-47" value="+ PLAYER_TURN" style="text;strokeColor=none;fillColor=none;align=left;verticalAlign=top;spacingLeft=4;spacingRight=4;overflow=hidden;rotatable=0;points=[[0,0.5],[1,0.5]];portConstraint=eastwest;whiteSpace=wrap;html=1;" vertex="1" parent="IZHfYTeVng84kyy--IW7-45">
          <mxGeometry y="66" width="140" height="26" as="geometry" />
        </mxCell>
        <mxCell id="IZHfYTeVng84kyy--IW7-48" value="+ KING_PROMOTION" style="text;strokeColor=none;fillColor=none;align=left;verticalAlign=top;spacingLeft=4;spacingRight=4;overflow=hidden;rotatable=0;points=[[0,0.5],[1,0.5]];portConstraint=eastwest;whiteSpace=wrap;html=1;" vertex="1" parent="IZHfYTeVng84kyy--IW7-45">
          <mxGeometry y="92" width="140" height="26" as="geometry" />
        </mxCell>
        <mxCell id="IZHfYTeVng84kyy--IW7-53" value="+ GAME_OVER" style="text;strokeColor=none;fillColor=none;align=left;verticalAlign=top;spacingLeft=4;spacingRight=4;overflow=hidden;rotatable=0;points=[[0,0.5],[1,0.5]];portConstraint=eastwest;whiteSpace=wrap;html=1;" vertex="1" parent="IZHfYTeVng84kyy--IW7-45">
          <mxGeometry y="118" width="140" height="26" as="geometry" />
        </mxCell>
        <mxCell id="IZHfYTeVng84kyy--IW7-49" value="«enum»&lt;br&gt;&lt;b&gt;PlayerID&lt;/b&gt;" style="swimlane;fontStyle=0;childLayout=stackLayout;horizontal=1;startSize=40;fillColor=none;horizontalStack=0;resizeParent=1;resizeParentMax=0;resizeLast=0;collapsible=1;marginBottom=0;whiteSpace=wrap;html=1;" vertex="1" parent="WIyWlLk6GJQsqaUBKTNV-1">
          <mxGeometry x="-550" y="820" width="180" height="92" as="geometry" />
        </mxCell>
        <mxCell id="IZHfYTeVng84kyy--IW7-50" value="+ PLAYER1" style="text;strokeColor=none;fillColor=none;align=left;verticalAlign=top;spacingLeft=4;spacingRight=4;overflow=hidden;rotatable=0;points=[[0,0.5],[1,0.5]];portConstraint=eastwest;whiteSpace=wrap;html=1;" vertex="1" parent="IZHfYTeVng84kyy--IW7-49">
          <mxGeometry y="40" width="180" height="26" as="geometry" />
        </mxCell>
        <mxCell id="IZHfYTeVng84kyy--IW7-51" value="+ PLAYER2" style="text;strokeColor=none;fillColor=none;align=left;verticalAlign=top;spacingLeft=4;spacingRight=4;overflow=hidden;rotatable=0;points=[[0,0.5],[1,0.5]];portConstraint=eastwest;whiteSpace=wrap;html=1;" vertex="1" parent="IZHfYTeVng84kyy--IW7-49">
          <mxGeometry y="66" width="180" height="26" as="geometry" />
        </mxCell>
        <mxCell id="IZHfYTeVng84kyy--IW7-55" value="" style="endArrow=block;startArrow=block;endFill=1;startFill=1;html=1;rounded=0;exitX=0.754;exitY=1.003;exitDx=0;exitDy=0;exitPerimeter=0;entryX=0.5;entryY=0;entryDx=0;entryDy=0;" edge="1" parent="WIyWlLk6GJQsqaUBKTNV-1" source="IZHfYTeVng84kyy--IW7-30" target="IZHfYTeVng84kyy--IW7-15">
          <mxGeometry width="160" relative="1" as="geometry">
            <mxPoint x="-120" y="290" as="sourcePoint" />
            <mxPoint x="40" y="290" as="targetPoint" />
          </mxGeometry>
        </mxCell>
        <mxCell id="IZHfYTeVng84kyy--IW7-56" value="" style="endArrow=block;startArrow=block;endFill=1;startFill=1;html=1;rounded=0;exitX=0.5;exitY=0;exitDx=0;exitDy=0;entryX=0.497;entryY=1.005;entryDx=0;entryDy=0;entryPerimeter=0;" edge="1" parent="WIyWlLk6GJQsqaUBKTNV-1" source="IZHfYTeVng84kyy--IW7-31" target="IZHfYTeVng84kyy--IW7-18">
          <mxGeometry width="160" relative="1" as="geometry">
            <mxPoint x="-130" y="380" as="sourcePoint" />
            <mxPoint x="30" y="380" as="targetPoint" />
          </mxGeometry>
        </mxCell>
        <mxCell id="IZHfYTeVng84kyy--IW7-57" value="" style="endArrow=diamondThin;endFill=0;endSize=24;html=1;rounded=0;exitX=1;exitY=0;exitDx=0;exitDy=0;entryX=0.246;entryY=1.004;entryDx=0;entryDy=0;entryPerimeter=0;" edge="1" parent="WIyWlLk6GJQsqaUBKTNV-1" source="IZHfYTeVng84kyy--IW7-11" target="IZHfYTeVng84kyy--IW7-30">
          <mxGeometry width="160" relative="1" as="geometry">
            <mxPoint x="-800" y="380" as="sourcePoint" />
            <mxPoint x="-640" y="380" as="targetPoint" />
          </mxGeometry>
        </mxCell>
        <mxCell id="IZHfYTeVng84kyy--IW7-58" value="Extends" style="endArrow=block;endSize=16;endFill=0;html=1;rounded=0;exitX=1;exitY=0;exitDx=0;exitDy=0;entryX=-0.002;entryY=1.004;entryDx=0;entryDy=0;entryPerimeter=0;" edge="1" parent="WIyWlLk6GJQsqaUBKTNV-1" source="IZHfYTeVng84kyy--IW7-35" target="IZHfYTeVng84kyy--IW7-30">
          <mxGeometry width="160" relative="1" as="geometry">
            <mxPoint x="-890" y="400" as="sourcePoint" />
            <mxPoint x="-730" y="400" as="targetPoint" />
          </mxGeometry>
        </mxCell>
        <mxCell id="IZHfYTeVng84kyy--IW7-59" value="Extends" style="endArrow=block;endSize=16;endFill=0;html=1;rounded=0;exitX=0.5;exitY=0.997;exitDx=0;exitDy=0;exitPerimeter=0;entryX=1;entryY=0;entryDx=0;entryDy=0;" edge="1" parent="WIyWlLk6GJQsqaUBKTNV-1" source="IZHfYTeVng84kyy--IW7-6" target="IZHfYTeVng84kyy--IW7-15">
          <mxGeometry width="160" relative="1" as="geometry">
            <mxPoint x="-480" y="530" as="sourcePoint" />
            <mxPoint x="-320" y="530" as="targetPoint" />
          </mxGeometry>
        </mxCell>
        <mxCell id="IZHfYTeVng84kyy--IW7-60" value="" style="endArrow=diamondThin;endFill=1;endSize=24;html=1;rounded=0;exitX=1;exitY=1;exitDx=0;exitDy=0;exitPerimeter=0;entryX=0;entryY=0.5;entryDx=0;entryDy=0;" edge="1" parent="WIyWlLk6GJQsqaUBKTNV-1" source="IZHfYTeVng84kyy--IW7-16" target="IZHfYTeVng84kyy--IW7-40">
          <mxGeometry width="160" relative="1" as="geometry">
            <mxPoint x="-480" y="530" as="sourcePoint" />
            <mxPoint x="-320" y="530" as="targetPoint" />
          </mxGeometry>
        </mxCell>
        <mxCell id="IZHfYTeVng84kyy--IW7-62" value="Extends" style="endArrow=block;endSize=16;endFill=0;html=1;rounded=0;exitX=0.5;exitY=0;exitDx=0;exitDy=0;entryX=0.497;entryY=0.999;entryDx=0;entryDy=0;entryPerimeter=0;" edge="1" parent="WIyWlLk6GJQsqaUBKTNV-1" source="IZHfYTeVng84kyy--IW7-49" target="IZHfYTeVng84kyy--IW7-30">
          <mxGeometry width="160" relative="1" as="geometry">
            <mxPoint x="-480" y="530" as="sourcePoint" />
            <mxPoint x="-320" y="530" as="targetPoint" />
          </mxGeometry>
        </mxCell>
        <mxCell id="IZHfYTeVng84kyy--IW7-63" value="Extends" style="endArrow=block;endSize=16;endFill=0;html=1;rounded=0;exitX=1;exitY=0.5;exitDx=0;exitDy=0;entryX=-0.005;entryY=0;entryDx=0;entryDy=0;entryPerimeter=0;" edge="1" parent="WIyWlLk6GJQsqaUBKTNV-1" source="IZHfYTeVng84kyy--IW7-50" target="IZHfYTeVng84kyy--IW7-34">
          <mxGeometry width="160" relative="1" as="geometry">
            <mxPoint x="-480" y="530" as="sourcePoint" />
            <mxPoint x="-330" y="900" as="targetPoint" />
          </mxGeometry>
        </mxCell>
        <mxCell id="IZHfYTeVng84kyy--IW7-64" value="Extends" style="endArrow=block;endSize=16;endFill=0;html=1;rounded=0;exitX=0;exitY=0;exitDx=0;exitDy=0;entryX=1;entryY=0.5;entryDx=0;entryDy=0;" edge="1" parent="WIyWlLk6GJQsqaUBKTNV-1" source="IZHfYTeVng84kyy--IW7-49" target="IZHfYTeVng84kyy--IW7-12">
          <mxGeometry width="160" relative="1" as="geometry">
            <mxPoint x="-480" y="530" as="sourcePoint" />
            <mxPoint x="-320" y="530" as="targetPoint" />
          </mxGeometry>
        </mxCell>
        <mxCell id="IZHfYTeVng84kyy--IW7-65" value="Extends" style="endArrow=block;endSize=16;endFill=0;html=1;rounded=0;exitX=0;exitY=0;exitDx=0;exitDy=0;entryX=0.999;entryY=0.998;entryDx=0;entryDy=0;entryPerimeter=0;" edge="1" parent="WIyWlLk6GJQsqaUBKTNV-1" source="IZHfYTeVng84kyy--IW7-45" target="IZHfYTeVng84kyy--IW7-18">
          <mxGeometry width="160" relative="1" as="geometry">
            <mxPoint x="-300" y="540" as="sourcePoint" />
            <mxPoint x="20" y="860" as="targetPoint" />
          </mxGeometry>
        </mxCell>
        <mxCell id="IZHfYTeVng84kyy--IW7-66" value="Extends" style="endArrow=block;endSize=16;endFill=0;html=1;rounded=0;exitX=0;exitY=0.5;exitDx=0;exitDy=0;entryX=1;entryY=0.5;entryDx=0;entryDy=0;" edge="1" parent="WIyWlLk6GJQsqaUBKTNV-1" source="IZHfYTeVng84kyy--IW7-47" target="IZHfYTeVng84kyy--IW7-32">
          <mxGeometry width="160" relative="1" as="geometry">
            <mxPoint x="-300" y="540" as="sourcePoint" />
            <mxPoint x="-140" y="540" as="targetPoint" />
          </mxGeometry>
        </mxCell>
      </root>
    </mxGraphModel>
  </diagram>
</mxfile>
